<mxfile host="app.diagrams.net" agent="Mozilla/5.0 (Macintosh; Intel Mac OS X 10_15_7) AppleWebKit/605.1.15 (KHTML, like Gecko) Version/18.2 Safari/605.1.15" version="27.1.5">
  <diagram name="第 1 页" id="zktVoLnLtZwW65CYIXCa">
    <mxGraphModel dx="673" dy="426" grid="1" gridSize="10" guides="1" tooltips="1" connect="1" arrows="1" fold="1" page="1" pageScale="1" pageWidth="827" pageHeight="1169" math="0" shadow="0">
      <root>
        <mxCell id="0" />
        <mxCell id="1" parent="0" />
        <mxCell id="m8ML5BPDddAzyy1q37J6-5" value="" style="edgeStyle=none;rounded=0;orthogonalLoop=1;jettySize=auto;html=1;" edge="1" parent="1" source="m8ML5BPDddAzyy1q37J6-3" target="m8ML5BPDddAzyy1q37J6-4">
          <mxGeometry relative="1" as="geometry" />
        </mxCell>
        <mxCell id="m8ML5BPDddAzyy1q37J6-3" value="客户端&lt;div&gt;(main.c + SQL)&lt;/div&gt;" style="whiteSpace=wrap;html=1;aspect=fixed;" vertex="1" parent="1">
          <mxGeometry x="180" y="200" width="110" height="110" as="geometry" />
        </mxCell>
        <mxCell id="m8ML5BPDddAzyy1q37J6-6" value="" style="edgeStyle=none;rounded=0;orthogonalLoop=1;jettySize=auto;html=1;" edge="1" parent="1" source="m8ML5BPDddAzyy1q37J6-4" target="m8ML5BPDddAzyy1q37J6-3">
          <mxGeometry relative="1" as="geometry" />
        </mxCell>
        <mxCell id="m8ML5BPDddAzyy1q37J6-4" value="数据库服务端&lt;div&gt;(MySQL Server)&lt;/div&gt;" style="whiteSpace=wrap;html=1;aspect=fixed;" vertex="1" parent="1">
          <mxGeometry x="380" y="200" width="110" height="110" as="geometry" />
        </mxCell>
        <mxCell id="m8ML5BPDddAzyy1q37J6-7" value="TCP/Socket" style="text;html=1;align=center;verticalAlign=middle;resizable=0;points=[];autosize=1;strokeColor=none;fillColor=none;" vertex="1" parent="1">
          <mxGeometry x="290" y="260" width="90" height="30" as="geometry" />
        </mxCell>
      </root>
    </mxGraphModel>
  </diagram>
</mxfile>
